<svg xmlns="http://www.w3.org/2000/svg" viewBox="0 0 32 32">
  <rect width="32" height="32" fill="#f1e6cf"></rect>
  <circle cx="16" cy="16" r="13" fill="none" stroke="#1a140c" stroke-width="1.2"></circle>
  <circle cx="16" cy="16" r="9.5" fill="none" stroke="#1a140c" stroke-width="0.8"></circle>
  <circle cx="16" cy="16" r="2.2" fill="#1a140c"></circle>
  <line x1="16" y1="3" x2="16" y2="5.5" stroke="#1a140c" stroke-width="1.4"></line>
  <line x1="22.5" y1="4.741" x2="21.25" y2="6.906" stroke="#1a140c" stroke-width="0.7"></line>
  <line x1="27.258" y1="9.5" x2="25.094" y2="10.75" stroke="#1a140c" stroke-width="0.7"></line>
  <line x1="29" y1="16" x2="26.5" y2="16" stroke="#1a140c" stroke-width="1.4"></line>
  <line x1="27.258" y1="22.5" x2="25.094" y2="21.25" stroke="#1a140c" stroke-width="0.7"></line>
  <line x1="22.5" y1="27.258" x2="21.25" y2="25.094" stroke="#1a140c" stroke-width="0.7"></line>
  <line x1="16" y1="29" x2="16" y2="26.5" stroke="#1a140c" stroke-width="1.4"></line>
  <line x1="9.5" y1="27.258" x2="10.75" y2="25.094" stroke="#1a140c" stroke-width="0.7"></line>
  <line x1="4.742" y1="22.5" x2="6.906" y2="21.25" stroke="#1a140c" stroke-width="0.7"></line>
  <line x1="3" y1="16" x2="5.5" y2="16" stroke="#1a140c" stroke-width="1.4"></line>
  <line x1="4.742" y1="9.5" x2="6.906" y2="10.75" stroke="#1a140c" stroke-width="0.7"></line>
  <line x1="9.5" y1="4.742" x2="10.75" y2="6.906" stroke="#1a140c" stroke-width="0.7"></line>
  <polygon points="16,4 14.5,7 17.5,7" fill="#a8391f"></polygon>
</svg>